PathFileType	4	(X/Y/Z)	S01_0005_Gait_markers.trc
DataRate	CameraRate	NumFrames	NumMarkers	Units	OrigDataRate	OrigDataStartFrame	OrigNumFrames
250.000000	250.000000	4	54	mm	250.000000	283	324
Frame#	Time	HEAD_ANT			R_HEAD			L_HEAD			C7			R_BACK			L_BACK			STERNUM			R_ACROMION			R_HUM_PROX			R_HUM_ANT			R_HUM_POST			R_ELBOW_LAT			R_ELBOW_MED			R_FOREARM			R_WIRST_LAT			R_WRITS_MED			R_HAND			L_ACROMION			L_HUM_PROX			L_HUM_ANT			L_HUM_POST			L_ELBOW_LAT			L_ELBOW_MED			L_FOREARM			L_WRIST_LAT			L_WIRST_MED			L_HAND			R_ILIAC			SACRUM			L_ILIAC			R_GTROCH			R_THIGH__1			R_THIGH_2			R_THIGH_3			R_THIGH_4			R_SHANK_1			R_SHANK_2			R_SHANK_3			R_SHANK_4			R_HEEL			R_FOOT_LAT			R_FOOT_MED			L_GTROCH			L_THIGH_1			L_THIGH_2			L_THIGH_3			L_THIGH_4			L_SHANK_1			L_SHANK_2			L_SHANK_3			L_SHANK_4			L_HEEL			L_FOOT_LAT			L_FOOT_MED			
		X1	Y1	Z1	X2	Y2	Z2	X3	Y3	Z3	X4	Y4	Z4	X5	Y5	Z5	X6	Y6	Z6	X7	Y7	Z7	X8	Y8	Z8	X9	Y9	Z9	X10	Y10	Z10	X11	Y11	Z11	X12	Y12	Z12	X13	Y13	Z13	X14	Y14	Z14	X15	Y15	Z15	X16	Y16	Z16	X17	Y17	Z17	X18	Y18	Z18	X19	Y19	Z19	X20	Y20	Z20	X21	Y21	Z21	X22	Y22	Z22	X23	Y23	Z23	X24	Y24	Z24	X25	Y25	Z25	X26	Y26	Z26	X27	Y27	Z27	X28	Y28	Z28	X29	Y29	Z29	X30	Y30	Z30	X31	Y31	Z31	X32	Y32	Z32	X33	Y33	Z33	X34	Y34	Z34	X35	Y35	Z35	X36	Y36	Z36	X37	Y37	Z37	X38	Y38	Z38	X39	Y39	Z39	X40	Y40	Z40	X41	Y41	Z41	X42	Y42	Z42	X43	Y43	Z43	X44	Y44	Z44	X45	Y45	Z45	X46	Y46	Z46	X47	Y47	Z47	X48	Y48	Z48	X49	Y49	Z49	X50	Y50	Z50	X51	Y51	Z51	X52	Y52	Z52	X53	Y53	Z53	X54	Y54	Z54	

284	1.132	1773.3642578125	1713.662719726562	-310.633148193359	1717.236694335938	1658.645263671875	-235.6507110595699	1714.669555664062	1669.724487304688	-383.751556396484	1581.90380859375	1491.486450195312	-323.5236816406247	1512.402709960938	1291.723754882812	-262.3456420898435	1514.448974609375	1299.788940429688	-404.786437988281	1764.14013671875	1333.83154296875	-317.5292053222653	1654.032592773438	1440.191528320312	-147.0095672607419	1608.169555664062	1275.556640625	-66.01352691650362	1669.765380859375	1190.443725585938	-58.0369911193845	1548.285278320312	1191.526123046875	-63.30535125732396	1595.308227539062	1084.632934570312	-53.40948104858374	1588.09033203125	1080.656127929688	-134.1888427734373	1687.903076171875	903.8966674804688	-29.65242958068828	1735.581298828125	839.2689819335938	-59.61159133911114	1661.711669921875	813.1962280273438	-41.49680328369123	1727.218872070312	753.9180297851562	2.612650871277023	1674.611328125	1450.989868164062	-488.2952880859372	1666.139404296875	1286.201538085938	-587.3825683593747	1732.042602539062	1207.940795898438	-583.7218017578123	1612.920288085938	1207.38134765625	-620.724670410156	1678.888427734375	1103.736572265625	-622.351135253906	1621.09765625	1093.5703125	-571.7853393554685	1805.503784179688	947.2623291015626	-581.7413330078123	1835.053466796875	893.2592773437501	-523.6187744140623	1805.563842773438	862.6111450195314	-589.661682128906	1887.06298828125	820.6466674804689	-562.2733154296873	1665.623046875	1045.551879882812	-157.4898223876951	1542.365966796875	1013.283508300781	-319.4642333984373	1652.820434570312	1041.379150390625	-500.2690734863279	1635.932861328125	894.4251708984375	-143.7963256835936	1760.592651367188	634.4485473632812	-168.5980377197264	1808.21044921875	670.2484130859375	-160.1591644287108	1848.271850585938	576.4501953125	-194.5801849365233	1788.010864257812	559.5377197265625	-186.1125030517577	1846.126586914062	336.4420471191407	-181.3933105468749	1905.152587890625	333.7499694824219	-198.4530944824218	1927.860717773438	252.9790954589844	-214.5673675537109	1866.115844726562	238.8464050292969	-203.0034790039062	1902.474731445312	28.20083618164069	-289.6140441894531	2066.63671875	50.46785354614262	-207.9255828857422	2104.089599609375	95.04680633544929	-293.087890625	1609.985107421875	936.5323486328126	-501.9549560546873	1614.209106445312	646.0028686523439	-491.7415161132811	1569.652465820312	680.8961791992189	-506.1427917480467	1526.84228515625	588.5451049804689	-477.1866455078124	1588.987915039062	571.2242431640626	-468.0601196289061	1429.181640625	335.3645019531251	-460.4098205566406	1369.353393554688	344.6136169433595	-465.2962341308593	1324.853271484375	271.7995910644532	-447.3633728027343	1382.871948242188	246.4544372558595	-436.3935546874999	1196.504760742188	130.0297393798829	-375.6099853515624	1339.898315429688	22.61906242370615	-437.0277099609375	1379.543090820312	27.72716903686531	-333.7362060546875	
285	1.136	1778.990356445312	1713.523315429688	-309.6336059570309	1721.050659179688	1657.957641601562	-235.1889190673824	1720.427368164062	1669.361694335938	-382.9237976074215	1587.865234375	1491.074096679688	-322.679290771484	1518.440551757812	1291.05029296875	-261.8442687988278	1520.6689453125	1299.430541992188	-404.6118469238278	1770.421997070312	1333.705200195312	-316.7220764160153	1659.978149414062	1439.690185546875	-146.1679840087887	1614.391967773438	1274.77099609375	-65.32447814941378	1676.269897460938	1189.844604492188	-57.79692840576146	1554.708984375	1190.776245117188	-62.80028533935521	1601.69775390625	1083.90283203125	-52.97261428832984	1593.35791015625	1081.334228515625	-133.823043823242	1694.286743164062	903.1494140625	-29.52329254150371	1741.989135742188	838.5887451171875	-59.33140182495099	1668.109741210938	812.6721801757812	-41.49022674560529	1732.7783203125	752.665771484375	2.074100494384933	1680.57958984375	1450.798461914062	-487.4602661132809	1671.948608398438	1286.044799804688	-586.9096679687497	1737.942749023438	1207.887084960938	-583.5243530273435	1618.386840820312	1207.455078125	-619.9118041992185	1684.585205078125	1103.894775390625	-622.096740722656	1626.743041992188	1093.609741210938	-571.456115722656	1810.724609375	946.9163818359376	-581.8114624023435	1840.390380859375	892.7737426757814	-523.849426269531	1810.655395507812	862.1915893554689	-589.7736206054685	1891.937133789062	820.0266113281251	-562.5153198242185	1671.437866210938	1045.47802734375	-156.9511566162107	1548.722778320312	1012.983276367188	-319.3756408691404	1659.59765625	1041.228271484375	-500.1151733398435	1642.943725585938	894.0091552734375	-143.4494323730467	1768.08056640625	634.3152465820312	-168.6442260742186	1815.57080078125	670.1881713867188	-160.8328247070311	1855.57666015625	576.403076171875	-195.3651123046874	1795.26513671875	559.2232055664062	-186.4286346435546	1851.928466796875	336.3760375976563	-181.7779846191405	1910.7353515625	332.8651123046876	-199.1900787353515	1932.455200195312	251.706283569336	-215.2660217285156	1870.681396484375	238.2746734619141	-203.4735107421874	1903.443115234375	29.19242668151862	-290.8633728027344	2067.56640625	46.36173629760747	-208.1954956054688	2107.354248046875	89.89467620849616	-293.0511474609375	1616.41015625	936.2781372070314	-501.6048889160154	1621.342529296875	646.0288085937501	-491.7621154785155	1576.74951171875	680.4482421875001	-506.2226562499998	1533.895141601562	588.0426635742189	-477.548370361328	1595.977661132812	570.6025390625001	-468.5016784667968	1434.361328125	335.5434570312501	-460.8634033203124	1374.661987304688	345.6007690429689	-465.7328186035156	1329.0751953125	272.7115783691407	-447.4503479003906	1387.00830078125	246.5274353027345	-436.9024047851562	1199.144775390625	133.5979614257813	-376.3912353515624	1340.260620117188	22.96736526489267	-437.045166015625	1379.778564453125	27.74525451660164	-333.9578857421875	
286	1.14	1784.889892578125	1713.05078125	-308.9928894042965	1727.947875976562	1657.817016601562	-234.1040496826168	1726.099243164062	1669.043090820312	-382.1236572265621	1593.791381835938	1490.307739257812	-321.9649658203122	1525.3125	1290.319580078125	-261.2436828613278	1526.7333984375	1299.0673828125	-404.1346435546872	1776.578857421875	1333.461547851562	-316.0094604492185	1665.9296875	1439.239013671875	-145.4036560058591	1620.592529296875	1274.198486328125	-64.8413543701169	1682.678955078125	1189.234985351562	-57.41801071166966	1561.0595703125	1189.99462890625	-62.15586853027317	1607.254516601562	1083.38134765625	-52.86825561523413	1600.115234375	1080.83251953125	-133.5463104248045	1700.783447265625	902.5151977539062	-29.22088813781718	1748.50048828125	837.9476928710938	-59.0593948364256	1674.753051757812	811.980712890625	-41.66376876831037	1739.84814453125	752.426025390625	2.993835210800338	1686.838012695312	1450.6015625	-486.6003723144528	1677.9560546875	1285.99462890625	-586.4142456054684	1743.513305664062	1207.530151367188	-583.2360229492185	1624.321655273438	1207.55322265625	-619.4183959960935	1689.858764648438	1103.87841796875	-621.549621582031	1632.003051757812	1093.938720703125	-571.2042236328123	1815.89990234375	946.6071166992189	-581.8898315429685	1845.654174804688	892.3531494140626	-523.9718017578123	1815.493041992188	861.7320556640626	-589.864318847656	1896.886474609375	819.5491943359376	-562.792297363281	1677.60791015625	1045.430908203125	-156.5090484619138	1555.36669921875	1012.582641601563	-319.0412597656248	1666.62451171875	1040.906982421875	-499.6246337890623	1649.911987304688	893.7196655273438	-143.2066802978514	1775.355224609375	634.3712768554688	-169.1215667724608	1822.902221679688	670.5889892578125	-161.383331298828	1862.743530273438	576.4583129882812	-196.0865020751952	1802.705688476562	559.3027954101562	-186.5613861083983	1857.630615234375	336.3778686523438	-182.2449798583984	1916.25146484375	332.1312561035157	-200.0868835449218	1936.911743164062	250.9049530029297	-216.0266723632812	1875.037231445312	238.0162963867188	-204.0638427734374	1904.744873046875	30.03129386901862	-291.4886169433594	2068.29931640625	42.05870437622075	-208.27001953125	2110.6611328125	84.14171600341804	-293.2718200683594	1624.541015625	936.4643554687501	-502.390686035156	1629.919555664062	645.3891601562501	-492.9451293945311	1583.985717773438	679.9642333984376	-506.2241821289061	1541.215087890625	587.1499633789064	-477.4314880371093	1603.421630859375	569.8382568359376	-468.5773620605468	1439.8349609375	335.6519470214845	-461.3176269531249	1380.188354492188	346.6354980468751	-466.3250122070312	1333.722412109375	274.8015747070314	-448.4233703613281	1391.341674804688	247.4326324462891	-437.5065917968749	1201.985473632812	137.2339172363282	-377.1909790039062	1340.62158203125	23.44584274292002	-437.1191711425781	1379.900634765625	27.93807029724129	-334.0121765136719	
287	1.144	1790.594116210938	1712.993286132812	-307.9683837890621	1732.866333007812	1657.415405273438	-233.5015106201168	1731.936401367188	1668.822998046875	-381.2025451660152	1599.704467773438	1490.006591796875	-321.1582031249997	1531.556762695312	1289.732543945312	-260.936340332031	1532.915283203125	1298.89990234375	-403.5644531249997	1782.746826171875	1333.268798828125	-315.290588378906	1671.925415039062	1438.938110351562	-144.6434326171872	1626.949829101562	1273.58056640625	-64.1726531982419	1689.063354492188	1188.7529296875	-57.127445220947	1567.462890625	1189.255126953125	-61.69400405883763	1613.9189453125	1082.818115234375	-52.5319671630857	1604.638305664062	1080.140625	-135.9209747314451	1707.18701171875	901.9613037109375	-28.98823356628398	1755.062133789062	837.4285278320312	-58.66841125488263	1681.187744140625	811.3136596679688	-41.56125640869123	1746.28076171875	751.8367309570312	3.126934528350997	1693.133178710938	1450.416870117188	-486.0793151855465	1683.871337890625	1286.08984375	-585.9401245117184	1749.421752929688	1207.421630859375	-582.807434082031	1629.709838867188	1207.863525390625	-618.7481689453123	1695.4560546875	1103.88330078125	-621.4051513671873	1637.843505859375	1093.8984375	-570.8341064453123	1820.970703125	946.2496948242189	-581.9830322265623	1850.83349609375	891.8540039062501	-524.1147460937498	1820.404296875	861.4349975585939	-590.032531738281	1901.798583984375	818.9707641601564	-563.0480346679685	1684.013549804688	1046.2822265625	-156.2728118896482	1562.03271484375	1012.157836914063	-318.8492431640623	1673.199462890625	1040.6611328125	-499.4833679199216	1656.913696289062	893.3364868164062	-142.6858215332029	1782.509399414062	634.4155883789062	-169.5099792480467	1829.960205078125	671.0067138671875	-161.4192962646483	1869.807861328125	576.7772216796875	-196.7526245117186	1809.669189453125	559.5905151367188	-186.7906188964843	1863.261962890625	336.7090148925782	-182.8766784667968	1921.807495117188	331.7445068359376	-200.9274291992187	1941.66015625	250.4005889892579	-216.6749572753906	1879.510864257812	238.2138061523438	-204.6756896972656	1905.767456054688	30.94634246826178	-292.1944580078125	2069.132080078125	38.19042968750005	-208.6720428466797	2113.35302734375	78.62736511230476	-293.7904663085938	1631.189697265625	936.0382080078126	-502.3559875488279	1636.990356445312	644.1622924804689	-492.574981689453	1591.432373046875	679.3323364257814	-505.8901977539061	1548.736694335938	586.4754028320314	-477.5951232910155	1611.00341796875	569.1118164062501	-468.7555847167968	1445.451171875	335.6114501953126	-461.9029541015624	1385.8935546875	347.4417419433595	-466.8523864746093	1338.640502929688	276.2504882812501	-449.1222229003906	1395.721313476562	248.9343414306641	-438.4874267578124	1205.10888671875	141.0790252685548	-377.7567749023437	1341.051513671875	23.81068801879892	-437.1134643554688	1381.528564453125	28.93789863586433	-335.018310546875	
